PathFileType	4	(X/Y/Z)	/Users/itak/Documents/Research/Walk-IL/dataset/trc/00394_00012.trc
DataRate	CameraRate	NumFrames	NumMarkers	Units	OrigDataRate	OrigDataStartFrame	OrigNumFrames
100.000000	100.000000	4	54	mm	100.000000	256	683
Frame#	Time	RPSI			LPSI			L3			STRN			T10			C7			CLAV			RBAK			LBAK			LSHO			LUPA			LAEL			LAOL			LWTS			LWPS			LFRA			LIFD			LHPS			RSHO			RUPA			RAEL			RAOL			RWTS			RWPS			RFRA			RIFD			RHTS			RHPS			RBHD			LFHD			RFHD			LBHD			RHIP			RASI			LASI			LKNE			LTHI			LANK			LTIP			LTOE			LMT1			LMT5			LHEE			RKNE			RTHI			RANK			RTIP			RTOE			RMT1			RMT5			RHEE			LHTS			LHIP			*53			
		X1	Y1	Z1	X2	Y2	Z2	X3	Y3	Z3	X4	Y4	Z4	X5	Y5	Z5	X6	Y6	Z6	X7	Y7	Z7	X8	Y8	Z8	X9	Y9	Z9	X10	Y10	Z10	X11	Y11	Z11	X12	Y12	Z12	X13	Y13	Z13	X14	Y14	Z14	X15	Y15	Z15	X16	Y16	Z16	X17	Y17	Z17	X18	Y18	Z18	X19	Y19	Z19	X20	Y20	Z20	X21	Y21	Z21	X22	Y22	Z22	X23	Y23	Z23	X24	Y24	Z24	X25	Y25	Z25	X26	Y26	Z26	X27	Y27	Z27	X28	Y28	Z28	X29	Y29	Z29	X30	Y30	Z30	X31	Y31	Z31	X32	Y32	Z32	X33	Y33	Z33	X34	Y34	Z34	X35	Y35	Z35	X36	Y36	Z36	X37	Y37	Z37	X38	Y38	Z38	X39	Y39	Z39	X40	Y40	Z40	X41	Y41	Z41	X42	Y42	Z42	X43	Y43	Z43	X44	Y44	Z44	X45	Y45	Z45	X46	Y46	Z46	X47	Y47	Z47	X48	Y48	Z48	X49	Y49	Z49	X50	Y50	Z50	X51	Y51	Z51	X52	Y52	Z52	X53	Y53	Z53	X54	Y54	Z54	

257	2.56	413.5151672363281	933.9044799804688	11.38669586181641	401.5216979980469	933.0263671875	-121.408805847168	417.4096374511719	1025.43408203125	-49.99953079223633	677.2525024414062	1177.15673828125	-48.61220169067383	421.7936096191406	1129.602294921875	-54.3037109375	470.7734069824219	1378.897216796875	-63.09167098999023	624.4111328125	1296.169189453125	-50.47872161865234	421.8491821289062	1233.764038085938	3.306246995925903	460.91455078125	1342.938720703125	-169.1117706298828	553.4215087890625	1354.6416015625	-214.5532989501953	539.6848754882812	1236.844360351562	-285.1082763671875	586.0478515625	1043.427734375	-305.8185424804688	518.0911254882812	1013.580871582031	-257.3208312988281	743.6504516601562	899.476806640625	-242.8331298828125	713.4995727539062	861.5006713867188	-309.6588439941406	632.7936401367188	957.5067749023438	-308.579833984375	837.0527954101562	749.6184692382812	-236.2823181152344	770.0518188476562	796.8536987304688	-296.4376220703125	522.5964965820312	1354.32861328125	98.91106414794922	506.918212890625	1289.047607421875	157.8397216796875	519.82763671875	1029.363647460938	208.1641540527344	502.1640319824219	1012.032470703125	115.3631210327148	684.4887084960938	839.6369018554688	189.9989318847656	642.6253662109375	821.4043579101562	247.7859039306641	555.7529296875	967.4874877929688	225.6931304931641	711.7777099609375	668.818359375	192.0995330810547	719.3230590820312	738.6925659179688	211.0037384033203	660.8924560546875	733.2562866210938	247.679443359375	512.6609497070312	1563.717651367188	30.35397911071777	661.9837646484375	1568.723876953125	-102.1229400634766	646.4599609375	1571.735473632812	20.2513599395752	515.4388427734375	1558.424560546875	-131.16650390625	506.4497985839844	917.0859985351562	123.0903244018555	630.2295532226562	938.2630615234375	61.42678070068359	607.2693481445312	935.5469970703125	-198.6083984375	599.840576171875	440.3275756835938	-187.5248565673828	578.10888671875	581.53955078125	-211.8690032958984	382.3352966308594	45.81315994262695	-150.8973999023438	495.4695434570312	225.6150512695312	-178.3063812255859	594.7872314453125	33.91678619384766	-79.43309020996094	511.1364135742188	36.84532165527344	-49.52112197875977	510.06689453125	41.4638786315918	-153.3602142333984	337.6416320800781	44.21833801269531	-98.93912506103516	766.4569702148438	501.6730041503906	100.4991455078125	658.4381713867188	736.84716796875	117.9234771728516	809.1989135742188	61.35425186157227	97.69923400878906	802.760498046875	380.3433227539062	98.67555999755859	979.556396484375	54.15655517578125	21.10076713562012	906.7977905273438	61.10549163818359	-2.11451530456543	895.6419067382812	44.4803466796875	96.36280822753906	735.9170532226562	52.2364501953125	44.64453506469727	812.1524047851562	828.6298217773438	-258.7958984375	487.4152221679688	933.9016723632812	-238.1341094970703	nan	nan	nan	
258	2.57	404.4293518066406	936.1229248046875	10.93786239624023	392.675537109375	935.041015625	-121.9051208496094	408.5583801269531	1027.621704101562	-50.46090316772461	667.9414672851562	1179.527587890625	-48.49639511108398	412.9977416992188	1131.621948242188	-54.84211730957031	461.2992858886719	1381.052734375	-62.98897171020508	614.9612426757812	1298.50537109375	-50.24319458007812	412.3479309082031	1235.784912109375	3.001268625259399	451.6800842285156	1345.3466796875	-169.0467071533203	544.2233276367188	1357.299560546875	-214.2956848144531	530.3055419921875	1239.74169921875	-285.2137756347656	576.0186767578125	1046.248901367188	-306.5249328613281	507.9347534179688	1016.589599609375	-258.0285949707031	732.7105102539062	900.9718627929688	-243.5838623046875	702.5786743164062	863.5361328125	-310.6639709472656	622.343994140625	960.0208129882812	-309.4571228027344	825.0364379882812	750.4114379882812	-237.1493835449219	758.609619140625	798.46728515625	-297.47412109375	512.8406372070312	1356.278686523438	99.03884887695312	497.048828125	1290.949829101562	157.8177490234375	509.576904296875	1031.268188476562	207.5346984863281	491.9613952636719	1014.145446777344	114.7389526367188	673.20263671875	840.4917602539062	189.2120361328125	631.1328735351562	822.40234375	246.9150085449219	545.1001586914062	969.1259765625	224.977783203125	699.1102294921875	669.4270629882812	190.747314453125	707.2543334960938	739.1705322265625	209.8894805908203	648.8401489257812	734.106201171875	246.5808563232422	503.7823791503906	1566.262817382812	30.34760475158691	652.7689819335938	1570.451049804688	-102.5973205566406	637.5477905273438	1573.8896484375	19.80939292907715	506.1124267578125	1560.390991210938	-131.1695709228516	496.8120727539062	919.4197998046875	122.7043914794922	620.9270629882812	940.5447998046875	61.23961639404297	598.0537719726562	937.5723876953125	-199.1244201660156	593.7644653320312	442.6532897949219	-187.8090667724609	571.0565795898438	583.6195068359375	-212.0675964355469	382.1932678222656	45.44173431396484	-150.5998382568359	492.4442443847656	226.5914001464844	-178.1787414550781	594.7918701171875	33.79790115356445	-79.43834686279297	511.246337890625	36.85050582885742	-49.47372817993164	509.9919128417969	41.58098602294922	-153.2222747802734	337.6492614746094	43.27468490600586	-98.53388214111328	757.4708251953125	504.2059936523438	99.08180236816406	650.0359497070312	739.1213989257812	116.7808074951172	779.5941772460938	62.95684432983398	98.46649932861328	788.2412719726562	381.1465148925781	98.12616729736328	951.4284057617188	54.33164978027344	26.3342170715332	879.1201171875	60.65922927856445	1.05212390422821	865.6611328125	45.51039123535156	99.41226196289062	706.9876098632812	54.03734970092773	44.36208343505859	800.8245239257812	829.8526000976562	-259.6792297363281	478.6854248046875	935.8171997070312	-238.4975738525391	nan	nan	nan	
259	2.58	395.5471801757812	938.4924926757812	10.61771011352539	384.0682373046875	937.1543579101562	-122.2502899169922	399.8397521972656	1029.862060546875	-50.81142807006836	658.6802368164062	1182.049682617188	-48.3736572265625	404.2024536132812	1133.711547851562	-55.23622512817383	451.7809753417969	1383.251708984375	-62.80243682861328	605.505126953125	1300.979858398438	-49.97436904907227	402.8783874511719	1237.8447265625	2.795071125030518	442.3953247070312	1347.796875	-168.8836364746094	534.9509887695312	1360.072631835938	-213.9638519287109	520.9192504882812	1242.7939453125	-285.2937927246094	565.985107421875	1049.217529296875	-307.2233276367188	497.7743225097656	1019.76708984375	-258.7628479003906	721.5631103515625	902.2586059570312	-244.3592529296875	691.4003295898438	865.4522094726562	-311.7156066894531	611.84033203125	962.5899658203125	-310.3610534667969	812.336181640625	750.6719360351562	-238.0301666259766	746.7079467773438	799.7954711914062	-298.5596923828125	503.1002197265625	1358.313354492188	99.22701263427734	487.2505493164062	1292.95849609375	157.8726501464844	499.5122985839844	1033.325073242188	206.9811553955078	481.902587890625	1016.371337890625	114.191032409668	662.0278930664062	841.4104614257812	188.4956665039062	619.76171875	823.5032958984375	246.1397094726562	534.6036376953125	970.8945922851562	224.3382568359375	686.4927978515625	670.09619140625	189.5555114746094	695.2876586914062	739.7200317382812	208.90185546875	636.9007568359375	735.0665283203125	245.630859375	494.8355102539062	1568.845336914062	30.4285945892334	643.4771118164062	1572.292846679688	-102.9771575927734	628.5637817382812	1576.112182617188	19.46105194091797	496.7123107910156	1562.438598632812	-131.0752410888672	487.4161376953125	921.9191284179688	122.3859710693359	611.8431396484375	942.916259765625	61.0391731262207	589.0250854492188	939.656005859375	-199.6011047363281	587.6378173828125	445.0083923339844	-188.07763671875	563.9735107421875	585.7308959960938	-212.2141723632812	382.0708923339844	45.16847610473633	-150.3475341796875	489.3796081542969	227.6437072753906	-178.0650482177734	594.7927856445312	33.67804336547852	-79.43605041503906	511.348388671875	36.86575698852539	-49.43056869506836	509.9288330078125	41.69408416748047	-153.1046600341797	337.6733703613281	42.48191070556641	-98.18051147460938	747.9729614257812	506.3556823730469	97.69401550292969	641.559814453125	741.24560546875	115.6402740478516	748.4253540039062	65.19122314453125	99.006103515625	772.9962158203125	381.7803344726562	97.43762969970703	921.5062866210938	54.10289001464844	31.1771068572998	849.698486328125	60.16458511352539	3.929397106170654	833.9833374023438	46.7847900390625	102.1899185180664	676.438232421875	56.81067276000977	43.90847396850586	789.0850830078125	830.6320190429688	-260.5487976074219	470.062744140625	937.7789916992188	-238.7636108398438	nan	nan	nan	
260	2.59	386.8542785644531	940.9692993164062	10.3995418548584	375.7054443359375	939.3212280273438	-122.4663619995117	391.2207336425781	1032.105346679688	-51.07921600341797	649.4519653320312	1184.667358398438	-48.25568389892578	395.37841796875	1135.8251953125	-55.50166702270508	442.2131958007812	1385.441772460938	-62.5390739440918	596.0350952148438	1303.540405273438	-49.68338775634766	393.4384155273438	1239.89013671875	2.680310726165771	433.0472412109375	1350.238159179688	-168.6300201416016	525.5917358398438	1362.9052734375	-213.5680847167969	511.5216674804688	1245.942749023438	-285.3562927246094	555.9450073242188	1052.274780273438	-307.9071350097656	487.6085205078125	1023.050964355469	-259.5121154785156	710.2286987304688	903.3316040039062	-245.1543579101562	679.9956665039062	867.2362670898438	-312.8082580566406	601.2933959960938	965.1767578125	-311.2848815917969	799.0086669921875	750.440673828125	-238.9385681152344	734.3887329101562	800.8400268554688	-299.6903991699219	493.37060546875	1360.381713867188	99.46613311767578	477.5222473144531	1295.023193359375	157.9980621337891	489.6203002929688	1035.482421875	206.5154876708984	471.9789733886719	1018.656982421875	113.7207641601562	650.9763793945312	842.3636474609375	187.8634338378906	608.5320434570312	824.6699829101562	245.4720001220703	524.26318359375	972.7449340820312	223.7846832275391	673.9552001953125	670.8001098632812	188.5146942138672	683.4395141601562	740.3132934570312	208.0410614013672	625.0877075195312	736.0978393554688	244.8252716064453	485.81298828125	1571.412719726562	30.59215545654297	634.103515625	1574.19482421875	-103.2608261108398	619.4991455078125	1578.349487304688	19.20592308044434	487.2334899902344	1564.520874023438	-130.8884429931641	478.2429504394531	924.5335083007812	122.1194610595703	602.9683837890625	945.3257446289062	60.82528305053711	580.1885986328125	941.7452392578125	-200.0293884277344	581.4404907226562	447.3441467285156	-188.3282318115234	556.8428344726562	587.8251953125	-212.3194122314453	381.9497375488281	44.94483184814453	-150.1239624023438	486.2650756835938	228.7197265625	-177.9603271484375	594.7839965820312	33.56422805786133	-79.43317413330078	511.4295349121094	36.86210250854492	-49.38231658935547	509.8643188476562	41.79710006713867	-153.0026702880859	337.7025756835938	41.78312301635742	-97.86144256591797	737.9498291015625	508.0513916015625	96.38328552246094	632.943603515625	743.1570434570312	114.5658111572266	716.034423828125	68.10255432128906	99.34329986572266	757.1000366210938	382.2348022460938	96.63249206542969	889.98828125	53.52875137329102	35.40602493286133	818.703125	59.71651077270508	6.400171756744385	800.9418334960938	48.31359481811523	104.5855178833008	644.5652465820312	60.63645172119141	43.3837776184082	776.9622802734375	830.9765014648438	-261.3963317871094	461.5455322265625	939.7327880859375	-238.9519653320312	nan	nan	nan	
